<svg width="72" height="72" viewBox="0 0 72 72" fill="none" xmlns="http://www.w3.org/2000/svg">
<rect width="72" height="72" rx="36" fill="#00AAE3"/>
<path d="M36.25 12C22.8779 12 12 22.8779 12 36.25C12 49.6221 22.8779 60.5 36.25 60.5C49.6221 60.5 60.5 49.6221 60.5 36.25C60.5 22.8779 49.6221 12 36.25 12ZM36.25 58.1905C24.1516 58.1905 14.3095 48.3484 14.3095 36.25C14.3095 24.1516 24.1516 14.3095 36.25 14.3095C48.3484 14.3095 58.1905 24.1516 58.1905 36.25C58.1905 48.3484 48.3484 58.1905 36.25 58.1905Z" fill="white"/>
<path d="M45.793 28.505L33.5444 40.7536L27.8283 35.0375C27.3768 34.586 26.647 34.586 26.1955 35.0375C25.744 35.489 25.744 36.2188 26.1955 36.6703L32.728 43.2028C32.9532 43.428 33.2488 43.5412 33.5444 43.5412C33.84 43.5412 34.1356 43.428 34.3608 43.2028L47.4258 30.1379C47.8773 29.6863 47.8773 28.9565 47.4258 28.505C46.9743 28.0535 46.2445 28.0535 45.793 28.505Z" fill="white"/>
</svg>
