<svg width="72" height="72" viewBox="0 0 72 72" fill="none" xmlns="http://www.w3.org/2000/svg">
<rect width="72" height="72" rx="36" fill="#00AAE3"/>
<path d="M60 33.3759C60 28.9617 56.385 25.3704 51.9416 25.3704C47.4997 25.3704 43.8859 28.9617 43.8859 33.3759C43.8859 37.4714 46.9993 40.8561 50.9979 41.322V47.7098C50.9979 53.4528 46.2948 58.125 40.5138 58.125C34.7329 58.125 30.0298 53.4528 30.0298 47.7098V43.5068C31.304 43.1077 32.2308 41.9228 32.2308 40.5268V39.4797C34.0789 38.7306 36.1575 37.2951 39.1769 34.7042C39.8121 34.1601 40.196 33.4017 40.2578 32.5687C40.2991 32.013 40.1928 31.4693 39.955 30.9812C43.8987 26.9759 46.1569 22.7948 46.1738 19.4267C46.183 17.5773 45.5419 15.9983 44.2689 14.7347C42.7864 13.2591 40.6823 12.6454 38.6479 13.0594C38.0241 12.4076 37.1436 12 36.1686 12C34.2831 12 32.7491 13.5239 32.7491 15.3969C32.7491 17.27 34.2831 18.7939 36.1686 18.7939C38.0555 18.7939 39.5907 17.27 39.5907 15.3969C39.5907 15.202 39.5732 15.0112 39.5413 14.8252C40.7892 14.7229 42.0288 15.1589 42.9341 16.0601C43.8509 16.9703 44.2933 18.0683 44.2865 19.4173C44.2723 22.2464 42.1814 26.0183 38.6603 29.6144C38.264 29.3946 37.8203 29.2613 37.3532 29.2274C36.5132 29.1664 35.7026 29.4327 35.0697 29.9766C32.2924 32.3575 30.6045 33.5664 29.0864 33.5664C27.5684 33.5664 25.8812 32.3575 23.1049 29.9763C22.0776 29.0965 20.6362 28.9934 19.5143 29.614C15.9933 26.0181 13.9021 22.2459 13.8875 19.4166C13.8805 18.0679 14.3224 16.9699 15.2384 16.0598C16.1451 15.1591 17.3857 14.7231 18.6336 14.8256C18.6018 15.0115 18.5842 15.2022 18.5842 15.3969C18.5842 17.27 20.1182 18.7939 22.0036 18.7939C23.8891 18.7939 25.4231 17.27 25.4231 15.3969C25.4231 13.5239 23.8892 12 22.0037 12C21.0292 12 20.1493 12.4077 19.5258 13.0597C17.493 12.6457 15.3884 13.2592 13.9037 14.734C12.6311 15.9984 11.9906 17.5772 12.0001 19.4262C12.0176 22.7942 14.2756 26.9748 18.2183 30.9795C17.6144 32.2214 17.895 33.7612 18.9946 34.7036C22.0114 37.2922 24.0897 38.7275 25.9413 39.4792V40.5268C25.9413 41.9228 26.868 43.1077 28.1423 43.5068V47.7098C28.1423 54.4867 33.6921 60 40.5137 60C47.3354 60 52.8852 54.4867 52.8852 47.7098V41.322C56.8854 40.8563 60 37.4715 60 33.3759ZM36.1686 16.919C35.3237 16.919 34.6365 16.2362 34.6365 15.397C34.6365 14.5579 35.3237 13.875 36.1686 13.875C37.0148 13.875 37.7033 14.5578 37.7033 15.3969C37.7033 16.2361 37.0148 16.919 36.1686 16.919ZM22.0037 13.875C22.8485 13.875 23.5358 14.5578 23.5358 15.3969C23.5358 16.2361 22.8485 16.9189 22.0037 16.9189C21.159 16.9189 20.4717 16.2361 20.4717 15.3969C20.4717 14.5578 21.1589 13.875 22.0037 13.875ZM29.0861 41.7758C28.3928 41.7758 27.8289 41.2155 27.8289 40.5269V38.8275C27.8289 38.4237 27.5686 38.0653 27.1829 37.9379C25.4141 37.3537 23.3993 36.0056 20.2284 33.2847C20.2282 33.2845 20.228 33.2843 20.2277 33.2842C19.7031 32.8348 19.6445 32.0449 20.0962 31.5244C20.3446 31.239 20.696 31.0928 21.0494 31.0928C21.3411 31.0928 21.6343 31.1925 21.8718 31.3959C25.0001 34.0791 26.9749 35.4414 29.0863 35.4414C31.1977 35.4414 33.173 34.0791 36.3035 31.3954C36.5557 31.1788 36.8795 31.0734 37.2157 31.0973C37.5519 31.1218 37.8575 31.2733 38.0749 31.5232C38.2935 31.7751 38.4003 32.0974 38.3756 32.4307C38.3509 32.764 38.1978 33.0671 37.9438 33.2845C34.7687 36.0091 32.754 37.3571 30.9904 37.9373C30.6041 38.0644 30.3434 38.4232 30.3434 38.8273V40.5267C30.3434 41.2155 29.7794 41.7758 29.0861 41.7758ZM51.9416 39.5037C48.5403 39.5037 45.7733 36.7548 45.7733 33.3759C45.7733 29.9956 48.5404 27.2454 51.9416 27.2454C55.3443 27.2454 58.1126 29.9955 58.1126 33.3759C58.1126 36.7548 55.3442 39.5037 51.9416 39.5037Z" fill="white"/>
<path d="M51.9987 29C49.7937 29 48 30.7944 48 33C48 35.2056 49.7938 37 51.9987 37C54.205 37 56 35.2056 56 33C56 30.7944 54.205 29 51.9987 29ZM51.9987 35.1004C50.8409 35.1004 49.8989 34.1583 49.8989 33C49.8989 31.8417 50.8409 30.8996 51.9987 30.8996C53.158 30.8996 54.1011 31.8418 54.1011 33C54.1011 34.1582 53.158 35.1004 51.9987 35.1004Z" fill="white"/>
</svg>
