<svg width="72" height="72" viewBox="0 0 72 72" fill="none" xmlns="http://www.w3.org/2000/svg">
<rect width="72" height="72" rx="36" fill="#00AAE3"/>
<path d="M37.2857 16.7857H36.2143V15.7143C36.2143 15.5248 36.139 15.3432 36.0051 15.2092C35.8711 15.0753 35.6894 15 35.5 15C35.3106 15 35.1289 15.0753 34.9949 15.2092C34.861 15.3432 34.7857 15.5248 34.7857 15.7143V16.7857H33.7143C33.5248 16.7857 33.3432 16.861 33.2092 16.9949C33.0753 17.1289 33 17.3106 33 17.5C33 17.6894 33.0753 17.8711 33.2092 18.0051C33.3432 18.139 33.5248 18.2143 33.7143 18.2143H34.7857V19.2857C34.7857 19.4752 34.861 19.6568 34.9949 19.7908C35.1289 19.9247 35.3106 20 35.5 20C35.6894 20 35.8711 19.9247 36.0051 19.7908C36.139 19.6568 36.2143 19.4752 36.2143 19.2857V18.2143H37.2857C37.4752 18.2143 37.6568 18.139 37.7908 18.0051C37.9247 17.8711 38 17.6894 38 17.5C38 17.3106 37.9247 17.1289 37.7908 16.9949C37.6568 16.861 37.4752 16.7857 37.2857 16.7857Z" fill="white"/>
<path d="M39.8415 39.2207C41.519 38.4202 42.9358 37.1621 43.9282 35.5918C44.9206 34.0214 45.4482 32.2027 45.4502 30.3456V16.7705C45.4532 16.1383 45.3298 15.5119 45.0872 14.928C44.8446 14.3442 44.4878 13.8145 44.0375 13.3703C43.5873 12.926 43.0528 12.576 42.4653 12.3409C41.8778 12.1057 41.2493 11.9901 40.6165 12.0009H30.5892C29.297 11.9763 28.0478 12.4646 27.1155 13.3587C26.1832 14.2529 25.6439 15.4798 25.6159 16.7705V30.3456C25.6238 32.2009 26.1567 34.0161 27.153 35.5819C28.1492 37.1477 29.5684 38.4003 31.2467 39.1951C26.9219 40.1722 23.0577 42.5879 20.2876 46.0463C17.5174 49.5046 16.0056 53.8004 16 58.2295C16 58.4241 16.0774 58.6108 16.2152 58.7484C16.3529 58.886 16.5398 58.9633 16.7346 58.9633C16.9294 58.9633 17.1163 58.886 17.254 58.7484C17.3918 58.6108 17.4692 58.4241 17.4692 58.2295C17.4726 54.8189 18.4422 51.4788 20.266 48.5954C22.0899 45.7121 24.6934 43.4032 27.7757 41.9358C27.3738 43.567 27.1424 45.2355 27.0851 46.9145C25.96 47.0895 24.9344 47.6604 24.1936 48.5243C23.4527 49.3881 23.0453 50.4879 23.0448 51.6254V56.7619C23.0741 57.3363 23.3157 57.8794 23.7228 58.2861C24.1299 58.6928 24.6736 58.9341 25.2486 58.9633C25.4435 58.9633 25.6303 58.886 25.7681 58.7484C25.9058 58.6108 25.9832 58.4241 25.9832 58.2295C25.9832 58.0349 25.9058 57.8483 25.7681 57.7107C25.6303 57.573 25.4435 57.4957 25.2486 57.4957C25.0626 57.4708 24.8899 57.3855 24.7571 57.2529C24.6244 57.1203 24.539 56.9478 24.514 56.7619V51.6254C24.514 50.7497 24.8623 49.9098 25.4823 49.2905C26.1022 48.6713 26.943 48.3234 27.8197 48.3234C28.6965 48.3234 29.5373 48.6713 30.1572 49.2905C30.7772 49.9098 31.1254 50.7497 31.1254 51.6254V56.7619C31.1005 56.9478 31.0151 57.1203 30.8824 57.2529C30.7496 57.3855 30.5769 57.4708 30.3908 57.4957C30.196 57.4957 30.0092 57.573 29.8714 57.7107C29.7336 57.8483 29.6562 58.0349 29.6562 58.2295C29.6562 58.4241 29.7336 58.6108 29.8714 58.7484C30.0092 58.886 30.196 58.9633 30.3908 58.9633C30.9659 58.9341 31.5096 58.6928 31.9167 58.2861C32.3238 57.8794 32.5654 57.3363 32.5947 56.7619V51.6254C32.5924 50.4892 32.1842 49.3911 31.4435 48.5288C30.7028 47.6665 29.6783 47.0967 28.5543 46.9219C28.6021 45.6928 28.7968 43.0291 29.5424 41.202L29.6232 41.1726L34.9454 48.4041C35.0136 48.4974 35.1028 48.5732 35.2059 48.6255C35.309 48.6778 35.423 48.7051 35.5386 48.7051C35.6542 48.7051 35.7682 48.6778 35.8712 48.6255C35.9743 48.5732 36.0636 48.4974 36.1318 48.4041L41.4099 41.213C41.4534 41.2627 41.4915 41.3168 41.5237 41.3744C42.9929 43.7445 43.4668 49.7029 43.5843 51.7098C42.6925 51.8917 41.9 52.3978 41.3605 53.1301C40.821 53.8624 40.573 54.7688 40.6645 55.6734C40.756 56.578 41.1805 57.4165 41.8557 58.0262C42.5309 58.636 43.4087 58.9736 44.3189 58.9736C45.2291 58.9736 46.1069 58.636 46.7821 58.0262C47.4573 57.4165 47.8818 56.578 47.9733 55.6734C48.0648 54.7688 47.8168 53.8624 47.2773 53.1301C46.7378 52.3978 45.9453 51.8917 45.0535 51.7098C44.958 49.9854 44.598 45.2048 43.4741 42.1229C49.373 45.1241 53.5308 51.2952 53.5308 58.2662C53.5308 58.4608 53.6082 58.6475 53.746 58.7851C53.8837 58.9227 54.0706 59 54.2654 59C54.4602 59 54.6471 58.9227 54.7848 58.7851C54.9226 58.6475 55 58.4608 55 58.2662C55 49.1269 48.3886 41.246 39.8415 39.2207ZM46.5521 55.2944C46.5521 55.7298 46.4228 56.1554 46.1807 56.5174C45.9385 56.8794 45.5943 57.1615 45.1916 57.3282C44.7889 57.4948 44.3458 57.5384 43.9183 57.4534C43.4908 57.3685 43.0982 57.1588 42.79 56.851C42.4817 56.5431 42.2719 56.1509 42.1868 55.7238C42.1018 55.2968 42.1454 54.8542 42.3122 54.4519C42.479 54.0497 42.7615 53.7059 43.1239 53.464C43.4863 53.2221 43.9124 53.093 44.3483 53.093C44.9328 53.093 45.4933 53.3249 45.9066 53.7378C46.3199 54.1506 46.5521 54.7105 46.5521 55.2944ZM43.981 25.9429C38.9269 25.7484 35.8746 24.0754 34.4312 23.0077H43.981V25.9429ZM27.0851 16.7705C27.0851 14.936 28.6241 13.4685 30.5892 13.4685H40.6165C41.0571 13.4545 41.496 13.53 41.9066 13.6902C42.3173 13.8505 42.6911 14.0922 43.0056 14.4009C43.32 14.7095 43.5686 15.0786 43.7363 15.4859C43.9039 15.8932 43.9872 16.3302 43.981 16.7705V21.5401H27.0851V16.7705ZM27.0851 30.3456V23.0077H32.2274C32.5689 23.3306 35.871 27.1022 43.981 27.4104V30.3456C43.981 32.5836 43.0909 34.73 41.5066 36.3125C39.9223 37.8951 37.7736 38.7841 35.5331 38.7841C33.2925 38.7841 31.1438 37.8951 29.5595 36.3125C27.9752 34.73 27.0851 32.5836 27.0851 30.3456ZM35.5331 46.7274L31.1254 40.725C32.5668 40.3639 34.0471 40.1815 35.5331 40.182C37.0204 40.1809 38.5018 40.3708 39.9407 40.747L35.5331 46.7274Z" fill="white"/>
</svg>
