<svg width="72" height="72" viewBox="0 0 72 72" fill="none" xmlns="http://www.w3.org/2000/svg">
<rect width="72" height="72" rx="36" fill="#00AAE3"/>
<path d="M59 28.1646C59 31.8446 57.7906 35.3112 55.5028 38.1898C53.2833 40.9822 50.1609 42.9912 46.7108 43.8467L46.3991 42.5993C53.0584 40.948 57.7094 35.0121 57.7094 28.1645C57.7094 19.9602 51.0099 13.2855 42.775 13.2855C34.5387 13.2855 27.8379 19.9602 27.8379 28.1645H26.5473C26.5473 19.2514 33.827 12 42.775 12C51.7214 12 59 19.2514 59 28.1646ZM41.7091 34.2067H42.1297V36.7541H43.4203V34.2042C45.2253 34.1516 46.6778 32.6735 46.6778 30.8629C46.6778 29.0206 45.172 27.5217 43.321 27.5217C41.0483 27.5217 40.1628 26.9447 40.1628 25.4635C40.1628 24.33 41.0897 23.4078 42.229 23.4078H43.8382C44.6924 23.4078 45.3872 24.0988 45.3872 24.9482V25.591H46.6778V24.9482C46.6778 23.39 45.404 22.1224 43.8382 22.1224H43.4203V19.5722H42.1297V22.1248C40.3247 22.1775 38.8722 23.6543 38.8722 25.4635C38.8722 28.8073 42.2207 28.8073 43.321 28.8073C44.4604 28.8073 45.3872 29.7294 45.3872 30.8629C45.3872 31.9978 44.4604 32.9211 43.321 32.9211H41.7092C40.8565 32.9211 40.1628 32.229 40.1628 31.3781V30.7354H38.8722V31.3781C38.8721 32.9379 40.1448 34.2067 41.7091 34.2067ZM44.3802 44.4046C45.0565 44.9685 45.4036 45.83 45.4036 46.6853C45.4036 47.8037 44.8098 48.9328 43.6632 49.3933C44.0697 49.9215 44.277 50.586 44.277 51.2468C44.277 52.0011 44.0179 52.7089 43.5473 53.2401C43.4036 53.4023 43.2148 53.5764 42.9733 53.7298C43.5074 54.2862 43.7807 55.0497 43.7807 55.8084C43.7807 57.2612 42.7784 58.732 40.8627 58.732H26.2575C26.0686 58.732 25.8892 58.6494 25.7665 58.5063C25.1375 57.7715 24.3021 57.3812 23.0443 57.2497V58.3573C23.0443 58.7123 22.7554 59 22.3991 59H13.6452C13.2888 59 13 58.7122 13 58.3573V41.3703C13 41.0153 13.2889 40.7276 13.6452 40.7276H22.3991C22.7555 40.7276 23.0443 41.0154 23.0443 41.3703V42.3575C23.6326 42.2239 24.0751 41.9996 24.4025 41.6704L28.208 28.5174C28.2554 28.3533 28.3663 28.2149 28.5165 28.1325C28.6664 28.0501 28.8431 28.0304 29.0079 28.0781L29.9796 28.3592C30.0604 28.3824 30.1401 28.4081 30.2194 28.4343C30.1659 26.1489 30.7383 23.9129 31.9004 21.91C33.5772 19.0166 36.285 16.9466 39.5248 16.0816C42.7652 15.2164 46.1492 15.6607 49.0538 17.3322C55.0497 20.7801 57.1116 28.4451 53.6497 34.4188C51.7724 37.6562 48.5851 39.8504 44.9383 40.4838C45.2462 40.972 45.4036 41.5491 45.4036 42.1238C45.4036 42.979 45.0565 43.8406 44.3802 44.4046ZM31.5441 29.0543C32.4241 29.6018 33.1565 30.3662 33.6738 31.2982C34.405 32.6157 34.6245 34.1172 34.309 35.5691C35.1195 36.4882 36.0699 37.2672 37.1417 37.8839C38.259 38.5261 39.4613 38.9683 40.7152 39.2003H42.4877C42.8652 39.2003 43.2066 39.2582 43.5124 39.3611C47.2797 39.1112 50.6445 37.0315 52.5324 33.776C55.6384 28.4163 53.7883 21.539 48.4086 18.4453C45.8024 16.9456 42.7661 16.547 39.859 17.3232C36.9521 18.0993 34.5226 19.9566 33.018 22.5529C31.8654 24.539 31.3597 26.7802 31.5441 29.0543ZM33.2747 39.2002H36.8651C36.7414 39.1344 36.6183 39.0671 36.4964 38.997C35.5436 38.4488 34.6765 37.7857 33.9056 37.02L33.2747 39.2002ZM21.7537 42.0131H14.2905V57.7144H21.7537V42.0131ZM44.1131 42.1237C44.1131 41.3084 43.6104 40.4857 42.4876 40.4857H32.4173C32.2145 40.4857 32.0235 40.3908 31.9017 40.2294C31.7798 40.068 31.7411 39.859 31.7972 39.6649L32.9676 35.6212C33.328 34.3754 33.1776 33.0609 32.5445 31.9201C31.9111 30.7791 30.873 29.953 29.6213 29.5941L29.2689 29.4922L25.6001 42.1728C25.5739 42.263 25.5284 42.3464 25.4665 42.4172C24.8987 43.0661 24.1022 43.4772 23.0444 43.6675V55.9557C24.1971 56.056 25.5024 56.3779 26.5425 57.4463H40.8628C41.9871 57.4463 42.4903 56.6236 42.4903 55.8083C42.4903 54.993 41.9871 54.1703 40.8628 54.1703H38.4542V52.8848H40.8627H41.359C41.8779 52.8848 42.2886 52.7182 42.5797 52.3896C42.8381 52.0977 42.9864 51.6812 42.9864 51.2468C42.9864 50.4315 42.4832 49.6088 41.3589 49.6088H38.4542V48.3233H41.359H42.4875C43.6104 48.3233 44.113 47.5006 44.113 46.6853C44.113 45.87 43.6103 45.0473 42.4875 45.0473H38.4542V43.7617H42.4876C43.6105 43.7617 44.1131 42.9391 44.1131 42.1237Z" fill="white"/>
</svg>
