<svg width="40" height="40" viewBox="0 0 40 40" fill="none" xmlns="http://www.w3.org/2000/svg">
<path d="M15 26.9499L9.21665 21.1666C8.90502 20.8549 8.48236 20.6798 8.04164 20.6798C7.60093 20.6798 7.17827 20.8549 6.86664 21.1666C6.55502 21.4782 6.37994 21.9008 6.37994 22.3416C6.37994 22.5598 6.42293 22.7758 6.50643 22.9775C6.58994 23.1791 6.71234 23.3622 6.86664 23.5166L13.8333 30.4832C14.4833 31.1332 15.5333 31.1332 16.1833 30.4832L33.8166 12.8499C34.1283 12.5383 34.3033 12.1156 34.3033 11.6749C34.3033 11.2342 34.1283 10.8115 33.8166 10.4999C33.505 10.1883 33.0824 10.0132 32.6416 10.0132C32.2009 10.0132 31.7783 10.1883 31.4666 10.4999L15 26.9499Z" fill="#0EC1B3"/>
</svg>
