<svg width="40" height="40" viewBox="0 0 40 40" fill="none" xmlns="http://www.w3.org/2000/svg">
<path d="M29.5576 27.436C29.8393 27.7177 29.9975 28.0997 29.9975 28.498C29.9975 28.8964 29.8393 29.2784 29.5576 29.5601C29.2759 29.8418 28.8938 30 28.4955 30C28.0971 30 27.715 29.8418 27.4333 29.5601L19.5 21.6247L11.5642 29.5576C11.2825 29.8393 10.9004 29.9975 10.5021 29.9975C10.1037 29.9975 9.72163 29.8393 9.43994 29.5576C9.15825 29.2759 9 28.8939 9 28.4955C9 28.0972 9.15825 27.7152 9.43994 27.4335L17.3758 19.5006L9.44244 11.5653C9.16075 11.2836 9.0025 10.9016 9.0025 10.5032C9.0025 10.1049 9.16075 9.72284 9.44244 9.44116C9.72413 9.15949 10.1062 9.00125 10.5045 9.00125C10.9029 9.00125 11.285 9.15949 11.5667 9.44116L19.5 17.3765L27.4358 9.43991C27.7175 9.15824 28.0996 9 28.4979 9C28.8963 9 29.2784 9.15824 29.5601 9.43991C29.8417 9.72159 30 10.1036 30 10.502C30 10.9003 29.8417 11.2823 29.5601 11.564L21.6242 19.5006L29.5576 27.436Z" fill="#FF6359"/>
</svg>
