<svg width="22" height="22" viewBox="0 0 22 22" fill="none" xmlns="http://www.w3.org/2000/svg">
<path d="M20.8994 3.92502L13.8283 10.9961L20.8994 18.0672C21.2744 18.4422 21.4851 18.9509 21.4851 19.4814C21.4851 20.0118 21.2744 20.5205 20.8994 20.8956C20.5243 21.2707 20.0156 21.4814 19.4851 21.4814C18.9547 21.4814 18.446 21.2707 18.0709 20.8956L10.9999 13.8245L3.92879 20.8956C3.55372 21.2707 3.04501 21.4814 2.51458 21.4814C1.98414 21.4814 1.47544 21.2707 1.10036 20.8956C0.72529 20.5205 0.514577 20.0118 0.514577 19.4814C0.514577 18.9509 0.72529 18.4422 1.10036 18.0672L8.17143 10.9961L1.10036 3.92502C0.72529 3.54995 0.514576 3.04124 0.514576 2.51081C0.514576 1.98038 0.72529 1.47167 1.10036 1.0966C1.47544 0.721525 1.98414 0.510811 2.51458 0.510811C3.04501 0.510811 3.55372 0.721525 3.92879 1.0966L10.9999 8.16767L18.0709 1.0966C18.446 0.721526 18.9547 0.51081 19.4851 0.51081C20.0156 0.51081 20.5243 0.721524 20.8994 1.0966C21.2744 1.47167 21.4851 1.98038 21.4851 2.51081C21.4851 3.04124 21.2744 3.54995 20.8994 3.92502Z" fill="white"/>
</svg>
