<svg width="28" height="28" viewBox="0 0 28 28" fill="none" xmlns="http://www.w3.org/2000/svg">
<path d="M26 15.9961H16V25.9961C16 26.5265 15.7893 27.0352 15.4142 27.4103C15.0391 27.7854 14.5304 27.9961 14 27.9961C13.4696 27.9961 12.9609 27.7854 12.5858 27.4103C12.2107 27.0352 12 26.5265 12 25.9961V15.9961H2C1.46957 15.9961 0.96086 15.7854 0.585787 15.4103C0.210714 15.0352 0 14.5265 0 13.9961C0 13.4657 0.210714 12.957 0.585787 12.5819C0.96086 12.2068 1.46957 11.9961 2 11.9961H12V1.99609C12 1.46566 12.2107 0.956952 12.5858 0.58188C12.9609 0.206807 13.4696 -0.00390625 14 -0.00390625C14.5304 -0.00390625 15.0391 0.206807 15.4142 0.58188C15.7893 0.956952 16 1.46566 16 1.99609V11.9961H26C26.5304 11.9961 27.0391 12.2068 27.4142 12.5819C27.7893 12.957 28 13.4657 28 13.9961C28 14.5265 27.7893 15.0352 27.4142 15.4103C27.0391 15.7854 26.5304 15.9961 26 15.9961Z" fill="white"/>
</svg>
